<svg xmlns="http://www.w3.org/2000/svg" version="1.0" width="512" height="512"><defs><linearGradient x1="45.448" y1="92.54" x2="45.448" y2="7.017" id="f" gradientUnits="userSpaceOnUse" gradientTransform="scale(1.00587 .99417)"><stop offset="0"/><stop offset="1" stop-opacity=".588"/></linearGradient><linearGradient id="b" gradientUnits="userSpaceOnUse" x1="340.049" y1="266.934" x2="372.381" y2="417.815"><stop offset="0" stop-color="#fff"/><stop offset=".087" stop-color="#f8f8f8"/><stop offset=".216" stop-color="#e4e4e4"/><stop offset=".371" stop-color="#c2c2c2"/><stop offset=".546" stop-color="#949494"/><stop offset=".739" stop-color="#595959"/><stop offset=".944" stop-color="#151515"/><stop offset=".994"/></linearGradient><linearGradient id="d" gradientUnits="userSpaceOnUse" x1="206.091" y1="397.621" x2="186.922" y2="563.473"><stop offset="0" stop-color="#fff"/><stop offset=".111" stop-color="#cbcbcb"/><stop offset=".24" stop-color="#969696"/><stop offset=".37" stop-color="#686868"/><stop offset=".499" stop-color="#424242"/><stop offset=".627" stop-color="#252525"/><stop offset=".754" stop-color="#111"/><stop offset=".879" stop-color="#040404"/><stop offset="1"/></linearGradient><linearGradient id="e" gradientUnits="userSpaceOnUse" x1="211.722" y1="562.858" x2="200.073" y2="466.754"><stop offset="0" stop-color="#fff"/><stop offset="1"/></linearGradient><radialGradient id="a" cx="88.978" cy="-20.899" r="673.116" fx="88.978" fy="-20.899" gradientUnits="userSpaceOnUse"><stop offset=".309" stop-color="#fff"/><stop offset="1"/></radialGradient><radialGradient id="c" cx="657.212" cy="155.233" r="606.953" fx="657.212" fy="155.233" gradientTransform="matrix(.931 0 0 .9299 28.746 21.663)" gradientUnits="userSpaceOnUse"><stop offset="0" stop-color="#c9c9c8"/><stop offset=".088" stop-color="#c4c4c4"/><stop offset=".219" stop-color="#b8b8b7"/><stop offset=".377" stop-color="#a1a0a0"/><stop offset=".556" stop-color="#7f7f7e"/><stop offset=".752" stop-color="#4f4f4e"/><stop offset=".96" stop-color="#121212"/><stop offset="1"/></radialGradient><filter id="g" color-interpolation-filters="sRGB"><feGaussianBlur stdDeviation="1.71"/></filter></defs><circle cx="256" cy="256" r="224.999" fill="#51b9c3"/><path d="M123.046 212.271v87.46h59.09L256 372.614V139.388l-73.863 72.883h-59.09zM322.477 256c0-25.803-15.068-47.97-36.931-58.751v117.344c21.863-10.622 36.931-32.789 36.931-58.593zm-36.931-127.84v30.016c42.692 12.534 73.863 51.607 73.863 97.824 0 46.219-31.17 85.29-73.863 97.825v30.015c59.238-13.269 103.408-65.45 103.408-127.84s-44.17-114.57-103.408-127.84z" fill-opacity=".2"/><path d="M123.046 212.271v87.46h59.09L256 372.614V139.388l-73.863 72.883h-59.09zM322.477 256c0-25.803-15.068-47.97-36.931-58.751v117.344c21.863-10.622 36.931-32.789 36.931-58.593zm-36.931-127.84v30.016c42.692 12.534 73.863 51.607 73.863 97.824 0 46.219-31.17 85.29-73.863 97.825v30.015c59.238-13.269 103.408-65.45 103.408-127.84s-44.17-114.57-103.408-127.84z" fill="#f5f5f5"/><path d="M256 31.002A224.999 224.999 0 0031.002 256a224.999 224.999 0 00.207 5.86A224.999 224.999 0 01256 41.001a224.999 224.999 0 01224.791 219.139 224.999 224.999 0 00.207-4.141A224.999 224.999 0 00256 31.002z" fill="#fff" opacity=".3"/><path d="M480.791 250.14A224.999 224.999 0 01256 470.999 224.999 224.999 0 0131.209 251.859a224.999 224.999 0 00-.207 4.141A224.999 224.999 0 00256 480.998 224.999 224.999 0 00480.998 256a224.999 224.999 0 00-.207-5.86z" opacity=".3"/></svg>